<mxfile host="app.diagrams.net" modified="2021-01-13T01:24:27.241Z" agent="5.0 (Macintosh; Intel Mac OS X 10_13_6) AppleWebKit/537.36 (KHTML, like Gecko) Chrome/87.0.4280.141 Safari/537.36" etag="y_xjQrzEtEQEwOoHX6nP" version="14.1.9" type="github">
  <diagram id="o5DuDH8UbpATqQsJam7N" name="Page-1">
    <mxGraphModel dx="946" dy="524" grid="1" gridSize="10" guides="1" tooltips="1" connect="1" arrows="1" fold="1" page="1" pageScale="1" pageWidth="827" pageHeight="1169" math="0" shadow="0">
      <root>
        <mxCell id="0" />
        <mxCell id="1" parent="0" />
        <mxCell id="sFapL6A9J18yi9iIIMRi-1" value="" style="edgeStyle=orthogonalEdgeStyle;rounded=0;orthogonalLoop=1;jettySize=auto;html=1;" edge="1" parent="1" source="sFapL6A9J18yi9iIIMRi-2">
          <mxGeometry relative="1" as="geometry">
            <mxPoint x="305" y="260" as="targetPoint" />
          </mxGeometry>
        </mxCell>
        <mxCell id="sFapL6A9J18yi9iIIMRi-2" value="&lt;font color=&quot;#000000&quot;&gt;画像&lt;br&gt;DB&lt;/font&gt;" style="shape=cylinder3;whiteSpace=wrap;html=1;boundedLbl=1;backgroundOutline=1;size=15;fillColor=#a0522d;strokeColor=#6D1F00;fontColor=#ffffff;" vertex="1" parent="1">
          <mxGeometry x="389" y="230" width="60" height="60" as="geometry" />
        </mxCell>
        <mxCell id="sFapL6A9J18yi9iIIMRi-4" value="离线批量写入" style="text;html=1;align=center;verticalAlign=middle;resizable=0;points=[];autosize=1;" vertex="1" parent="1">
          <mxGeometry x="300" y="240" width="90" height="20" as="geometry" />
        </mxCell>
        <mxCell id="sFapL6A9J18yi9iIIMRi-5" value="在线读取" style="edgeStyle=orthogonalEdgeStyle;rounded=0;orthogonalLoop=1;jettySize=auto;html=1;" edge="1" parent="1" source="sFapL6A9J18yi9iIIMRi-6">
          <mxGeometry relative="1" as="geometry">
            <mxPoint x="260" y="240" as="targetPoint" />
          </mxGeometry>
        </mxCell>
        <mxCell id="sFapL6A9J18yi9iIIMRi-6" value="在线服务" style="rounded=1;whiteSpace=wrap;html=1;fillColor=#d5e8d4;strokeColor=#82b366;" vertex="1" parent="1">
          <mxGeometry x="220" y="150" width="80" height="40" as="geometry" />
        </mxCell>
        <mxCell id="sFapL6A9J18yi9iIIMRi-7" value="HBASE" style="rounded=0;whiteSpace=wrap;html=1;fillColor=#a20025;strokeColor=#6F0000;fontColor=#ffffff;" vertex="1" parent="1">
          <mxGeometry x="215" y="240" width="90" height="40" as="geometry" />
        </mxCell>
      </root>
    </mxGraphModel>
  </diagram>
</mxfile>
